<svg width="16" height="16" viewBox="0 0 16 16" fill="none" xmlns="http://www.w3.org/2000/svg">
<path fill-rule="evenodd" clip-rule="evenodd" d="M8.46162 4.61137C8.20367 4.85892 7.79637 4.85892 7.53842 4.61137L7.07682 4.1684C6.53653 3.64992 5.80664 3.33333 5.00002 3.33333C3.34317 3.33333 2.00002 4.67648 2.00002 6.33333C2.00002 7.92175 2.85988 9.23337 4.10119 10.311C5.34357 11.3896 6.82895 12.105 7.71645 12.47C7.90202 12.5464 8.09802 12.5464 8.28359 12.47C9.17109 12.105 10.6565 11.3896 11.8988 10.311C13.1402 9.23337 14 7.92175 14 6.33333C14 4.67648 12.6569 3.33333 11 3.33333C10.1934 3.33333 9.46351 3.64991 8.92322 4.1684L8.46162 4.61137ZM8.00002 3.20638C7.22142 2.4592 6.16435 2 5.00002 2C2.60679 2 0.666687 3.9401 0.666687 6.33333C0.666687 10.5788 5.31358 12.9233 7.20921 13.7031C7.71973 13.9131 8.28031 13.9131 8.79083 13.7031C10.6865 12.9233 15.3334 10.5788 15.3334 6.33333C15.3334 3.9401 13.3933 2 11 2C9.83569 2 8.77862 2.4592 8.00002 3.20638Z" fill="#141718"/>
</svg>
